<svg xmlns="http://www.w3.org/2000/svg" xmlns:xlink="http://www.w3.org/1999/xlink" version="1.1" width="512px" height="512px" style="shape-rendering:geometricPrecision; text-rendering:geometricPrecision; image-rendering:optimizeQuality; fill-rule:evenodd; clip-rule:evenodd">
<g><path style="opacity:0.979" fill="#5408a5" d="M 122.5,-0.5 C 211.167,-0.5 299.833,-0.5 388.5,-0.5C 398.614,3.33141 404.781,10.6647 407,21.5C 407.5,43.4975 407.667,65.4975 407.5,87.5C 426.555,87.0511 445.555,87.5511 464.5,89C 477.069,93.2363 485.236,101.736 489,114.5C 490.156,165.63 490.656,216.797 490.5,268C 490.656,319.203 490.156,370.37 489,421.5C 483.669,436.499 473.169,445.333 457.5,448C 407.163,448.167 356.83,448.667 306.5,449.5C 312.042,464.793 317.375,480.127 322.5,495.5C 334.505,495.333 346.505,495.5 358.5,496C 365.086,501.16 365.086,506.327 358.5,511.5C 289.833,511.5 221.167,511.5 152.5,511.5C 145.914,506.327 145.914,501.16 152.5,496C 164.495,495.5 176.495,495.333 188.5,495.5C 193.833,479.833 199.167,464.167 204.5,448.5C 154.166,448.667 103.832,448.5 53.5,448C 37.8311,445.333 27.3311,436.499 22,421.5C 20.8445,370.37 20.3445,319.203 20.5,268C 20.3445,216.797 20.8445,165.63 22,114.5C 25.7643,101.736 33.931,93.2363 46.5,89C 65.4451,87.5511 84.4451,87.0511 103.5,87.5C 103.052,64.1224 103.552,40.7891 105,17.5C 108.087,8.73028 113.92,2.73028 122.5,-0.5 Z M 130.5,15.5 C 214.167,15.3333 297.834,15.5 381.5,16C 385.896,16.7297 388.73,19.2297 390,23.5C 390.667,81.1667 390.667,138.833 390,196.5C 389.214,199.583 387.381,201.749 384.5,203C 354.793,203.04 325.127,203.707 295.5,205C 290.667,207.167 287.167,210.667 285,215.5C 275.366,232.629 265.533,249.629 255.5,266.5C 244.414,247.997 233.581,229.33 223,210.5C 220.766,208.3 218.266,206.467 215.5,205C 185.12,204.024 154.787,203.024 124.5,202C 122.959,200.421 121.792,198.587 121,196.5C 120.333,138.833 120.333,81.1667 121,23.5C 122.593,18.8085 125.76,16.1418 130.5,15.5 Z M 77.5,141.5 C 86.1667,141.5 94.8333,141.5 103.5,141.5C 103.333,160.17 103.5,178.836 104,197.5C 105.862,209.028 112.362,216.528 123.5,220C 151.833,220.333 180.167,220.667 208.5,221C 219.712,239.254 230.545,257.754 241,276.5C 246.357,283.085 253.191,285.251 261.5,283C 264.902,281.6 267.736,279.433 270,276.5C 280.455,257.754 291.288,239.254 302.5,221C 330.833,220.667 359.167,220.333 387.5,220C 398.638,216.528 405.138,209.028 407,197.5C 407.5,178.836 407.667,160.17 407.5,141.5C 416.167,141.5 424.833,141.5 433.5,141.5C 433.5,225.833 433.5,310.167 433.5,394.5C 314.833,394.5 196.167,394.5 77.5,394.5C 77.5,310.167 77.5,225.833 77.5,141.5 Z"/></g>
<g><path style="opacity:0.984" fill="#5408a5" d="M 251.5,39.5 C 255.273,39.2633 258.94,39.7633 262.5,41C 297.58,54.8043 332.58,68.8043 367.5,83C 373.342,89.163 373.842,95.663 369,102.5C 362.846,106.159 356.346,109.159 349.5,111.5C 348.668,120.148 348.168,128.814 348,137.5C 347.018,141.624 344.352,143.624 340,143.5C 336.233,143.479 333.566,141.813 332,138.5C 331.667,131.833 331.333,125.167 331,118.5C 328.978,119.786 326.811,120.786 324.5,121.5C 323.667,133.82 323.167,146.153 323,158.5C 321.311,163.525 318.144,167.359 313.5,170C 274.833,184 236.167,184 197.5,170C 192.856,167.359 189.689,163.525 188,158.5C 187.833,146.153 187.333,133.82 186.5,121.5C 172.127,115.764 157.793,109.931 143.5,104C 136.879,97.0543 136.879,90.0543 143.5,83C 179.64,68.5712 215.64,54.0712 251.5,39.5 Z"/></g>
<g><path style="opacity:1" fill="#8886fe" d="M 267.5,61.5 C 267.5,82.8333 267.5,104.167 267.5,125.5C 263.814,127.669 259.814,129.336 255.5,130.5C 250.815,128.828 246.149,127.161 241.5,125.5C 242.488,104.242 242.822,82.9088 242.5,61.5C 246.702,59.5687 251.035,57.902 255.5,56.5C 259.814,57.6642 263.814,59.3309 267.5,61.5 Z"/></g>
<g><path style="opacity:1" fill="#7e8bfe" d="M 267.5,61.5 C 276.465,64.2627 285.132,67.596 293.5,71.5C 293.5,86.1667 293.5,100.833 293.5,115.5C 285.132,119.404 276.465,122.737 267.5,125.5C 267.5,104.167 267.5,82.8333 267.5,61.5 Z"/></g>
<g><path style="opacity:1" fill="#967ffe" d="M 242.5,61.5 C 242.822,82.9088 242.488,104.242 241.5,125.5C 231.656,121.739 221.989,117.739 212.5,113.5C 212.5,100.167 212.5,86.8333 212.5,73.5C 222.344,69.3247 232.344,65.3247 242.5,61.5 Z"/></g>
<g><path style="opacity:0.999" fill="#7291fe" d="M 293.5,71.5 C 301.129,73.9876 308.462,76.9876 315.5,80.5C 314.167,89.1667 314.167,97.8333 315.5,106.5C 308.462,110.012 301.129,113.012 293.5,115.5C 293.5,100.833 293.5,86.1667 293.5,71.5 Z"/></g>
<g><path style="opacity:0.999" fill="#a17afe" d="M 212.5,73.5 C 212.5,86.8333 212.5,100.167 212.5,113.5C 195.584,107.418 178.918,100.751 162.5,93.5C 178.932,86.285 195.599,79.6184 212.5,73.5 Z"/></g>
<g><path style="opacity:0.999" fill="#6597fe" d="M 315.5,80.5 C 326.834,84.0009 337.834,88.3343 348.5,93.5C 337.834,98.6657 326.834,102.999 315.5,106.5C 314.167,97.8333 314.167,89.1667 315.5,80.5 Z"/></g>
<g><path style="opacity:1" fill="#bd6afe" d="M 134.5,410.5 C 131.375,411.479 128.042,411.813 124.5,411.5C 124.5,418.167 124.5,424.833 124.5,431.5C 100.498,431.667 76.4977,431.5 52.5,431C 43.4697,428.124 38.303,421.957 37,412.5C 36.3333,315.5 36.3333,218.5 37,121.5C 39.4035,112.763 44.9035,106.929 53.5,104C 70.4967,103.5 87.4967,103.333 104.5,103.5C 104.5,110.5 104.5,117.5 104.5,124.5C 91.8289,124.333 79.1623,124.5 66.5,125C 64,126.167 62.1667,128 61,130.5C 60.3333,221.833 60.3333,313.167 61,404.5C 61.6853,407.057 63.1853,408.891 65.5,410C 88.4976,410.5 111.498,410.667 134.5,410.5 Z"/></g>
<g><path style="opacity:1" fill="#23bafe" d="M 443.5,103.5 C 441.595,110.219 440.929,117.219 441.5,124.5C 429.833,124.5 418.167,124.5 406.5,124.5C 406.5,117.5 406.5,110.5 406.5,103.5C 418.833,103.5 431.167,103.5 443.5,103.5 Z"/></g>
<g><path style="opacity:1" fill="#10c3fe" d="M 443.5,103.5 C 448.263,103.226 452.93,103.559 457.5,104.5C 457.167,213.335 457.501,322.001 458.5,430.5C 457.432,431.434 456.099,431.768 454.5,431.5C 450.167,431.5 445.833,431.5 441.5,431.5C 440.929,424.219 441.595,417.219 443.5,410.5C 447.079,410.089 449.246,408.089 450,404.5C 450.667,313.167 450.667,221.833 450,130.5C 448.403,126.735 445.57,124.735 441.5,124.5C 440.929,117.219 441.595,110.219 443.5,103.5 Z"/></g>
<g><path style="opacity:1" fill="#09c6fd" d="M 457.5,104.5 C 466.592,107.096 472.092,113.096 474,122.5C 474.667,219.167 474.667,315.833 474,412.5C 472.76,422.031 467.593,428.031 458.5,430.5C 457.501,322.001 457.167,213.335 457.5,104.5 Z"/></g>
<g><path style="opacity:0.999" fill="#997dfe" d="M 230.5,138.5 C 230.5,146.167 230.5,153.833 230.5,161.5C 221.614,160.279 212.947,158.112 204.5,155C 203.183,145.893 203.183,136.727 204.5,127.5C 213.267,131.192 221.934,134.858 230.5,138.5 Z"/></g>
<g><path style="opacity:0.999" fill="#778efe" d="M 284.5,160.5 C 283.508,153.018 283.175,145.352 283.5,137.5C 291.066,134.191 298.732,130.858 306.5,127.5C 307.817,136.727 307.817,145.893 306.5,155C 299.33,157.558 291.997,159.391 284.5,160.5 Z"/></g>
<g><path style="opacity:0.999" fill="#8189fe" d="M 283.5,137.5 C 283.175,145.352 283.508,153.018 284.5,160.5C 275.115,162.864 265.448,163.864 255.5,163.5C 255.5,158.167 255.5,152.833 255.5,147.5C 256.791,147.737 257.791,147.404 258.5,146.5C 266.769,143.299 275.102,140.299 283.5,137.5 Z"/></g>
<g><path style="opacity:0.999" fill="#8e82fe" d="M 230.5,138.5 C 237.259,140.698 243.926,143.198 250.5,146C 253.146,146.497 255.813,146.664 258.5,146.5C 257.791,147.404 256.791,147.737 255.5,147.5C 255.5,152.833 255.5,158.167 255.5,163.5C 246.938,163.843 238.605,163.176 230.5,161.5C 230.5,153.833 230.5,146.167 230.5,138.5 Z"/></g>
<g><path style="opacity:1" fill="#b172fe" d="M 134.5,410.5 C 143.167,410.5 151.833,410.5 160.5,410.5C 159.791,411.404 158.791,411.737 157.5,411.5C 157.5,418.167 157.5,424.833 157.5,431.5C 146.5,431.5 135.5,431.5 124.5,431.5C 124.5,424.833 124.5,418.167 124.5,411.5C 128.042,411.813 131.375,411.479 134.5,410.5 Z"/></g>
<g><path style="opacity:1" fill="#a777fe" d="M 160.5,410.5 C 176.167,410.5 191.833,410.5 207.5,410.5C 203.366,411.485 199.032,411.818 194.5,411.5C 194.5,418.167 194.5,424.833 194.5,431.5C 182.167,431.5 169.833,431.5 157.5,431.5C 157.5,424.833 157.5,418.167 157.5,411.5C 158.791,411.737 159.791,411.404 160.5,410.5 Z"/></g>
<g><path style="opacity:1" fill="#9b7dfe" d="M 207.5,410.5 C 217.167,410.5 226.833,410.5 236.5,410.5C 234.735,411.461 232.735,411.795 230.5,411.5C 230.5,418.167 230.5,424.833 230.5,431.5C 228.833,431.5 227.167,431.5 225.5,431.5C 215.167,431.5 204.833,431.5 194.5,431.5C 194.5,424.833 194.5,418.167 194.5,411.5C 199.032,411.818 203.366,411.485 207.5,410.5 Z"/></g>
<g><path style="opacity:1" fill="#7f7af4" d="M 236.5,410.5 C 245.167,410.5 253.833,410.5 262.5,410.5C 260.393,411.468 258.059,411.802 255.5,411.5C 255.5,418.167 255.5,424.833 255.5,431.5C 268.833,431.5 282.167,431.5 295.5,431.5C 306.5,431.5 317.5,431.5 328.5,431.5C 335.833,431.5 343.167,431.5 350.5,431.5C 357.167,431.5 363.833,431.5 370.5,431.5C 382.5,431.5 394.5,431.5 406.5,431.5C 418.167,431.5 429.833,431.5 441.5,431.5C 445.833,431.5 450.167,431.5 454.5,431.5C 378.167,432.833 301.833,432.833 225.5,431.5C 227.167,431.5 228.833,431.5 230.5,431.5C 230.5,424.833 230.5,418.167 230.5,411.5C 232.735,411.795 234.735,411.461 236.5,410.5 Z"/></g>
<g><path style="opacity:1" fill="#808bfe" d="M 262.5,410.5 C 275.833,410.5 289.167,410.5 302.5,410.5C 300.393,411.468 298.059,411.802 295.5,411.5C 295.5,418.167 295.5,424.833 295.5,431.5C 282.167,431.5 268.833,431.5 255.5,431.5C 255.5,424.833 255.5,418.167 255.5,411.5C 258.059,411.802 260.393,411.468 262.5,410.5 Z"/></g>
<g><path style="opacity:1" fill="#6a95fe" d="M 302.5,410.5 C 314.167,410.5 325.833,410.5 337.5,410.5C 334.713,411.477 331.713,411.81 328.5,411.5C 328.5,418.167 328.5,424.833 328.5,431.5C 317.5,431.5 306.5,431.5 295.5,431.5C 295.5,424.833 295.5,418.167 295.5,411.5C 298.059,411.802 300.393,411.468 302.5,410.5 Z"/></g>
<g><path style="opacity:1" fill="#5c9cfe" d="M 337.5,410.5 C 348.5,410.5 359.5,410.5 370.5,410.5C 370.5,410.833 370.5,411.167 370.5,411.5C 363.833,411.5 357.167,411.5 350.5,411.5C 350.5,418.167 350.5,424.833 350.5,431.5C 343.167,431.5 335.833,431.5 328.5,431.5C 328.5,424.833 328.5,418.167 328.5,411.5C 331.713,411.81 334.713,411.477 337.5,410.5 Z"/></g>
<g><path style="opacity:1" fill="#50a3ff" d="M 370.5,411.5 C 370.5,418.167 370.5,424.833 370.5,431.5C 363.833,431.5 357.167,431.5 350.5,431.5C 350.5,424.833 350.5,418.167 350.5,411.5C 357.167,411.5 363.833,411.5 370.5,411.5 Z"/></g>
<g><path style="opacity:1" fill="#3badfe" d="M 370.5,410.5 C 383.167,410.5 395.833,410.5 408.5,410.5C 406.595,417.219 405.929,424.219 406.5,431.5C 394.5,431.5 382.5,431.5 370.5,431.5C 370.5,424.833 370.5,418.167 370.5,411.5C 370.5,411.167 370.5,410.833 370.5,410.5 Z"/></g>
<g><path style="opacity:1" fill="#23bafe" d="M 408.5,410.5 C 420.167,410.5 431.833,410.5 443.5,410.5C 441.595,417.219 440.929,424.219 441.5,431.5C 429.833,431.5 418.167,431.5 406.5,431.5C 405.929,424.219 406.595,417.219 408.5,410.5 Z"/></g>
<g><path style="opacity:1" fill="#9380fe" d="M 288.5,448.5 C 281.5,448.5 274.5,448.5 267.5,448.5C 259.167,448.5 250.833,448.5 242.5,448.5C 242.5,464.167 242.5,479.833 242.5,495.5C 230.162,495.667 217.829,495.5 205.5,495C 211.457,479.632 217.123,464.132 222.5,448.5C 244.663,447.172 266.663,447.172 288.5,448.5 Z"/></g>
<g><path style="opacity:1" fill="#8887ff" d="M 267.5,448.5 C 267.5,464.167 267.5,479.833 267.5,495.5C 259.167,495.5 250.833,495.5 242.5,495.5C 242.5,479.833 242.5,464.167 242.5,448.5C 250.833,448.5 259.167,448.5 267.5,448.5 Z"/></g>
<g><path style="opacity:0.999" fill="#7b8dfe" d="M 267.5,448.5 C 274.5,448.5 281.5,448.5 288.5,448.5C 293.868,464.103 299.535,479.603 305.5,495C 292.838,495.5 280.171,495.667 267.5,495.5C 267.5,479.833 267.5,464.167 267.5,448.5 Z"/></g>
</svg>